<?xml version="1.0" standalone="no"?>
<!DOCTYPE svg PUBLIC "-//W3C//DTD SVG 20010904//EN"
 "http://www.w3.org/TR/2001/REC-SVG-20010904/DTD/svg10.dtd">
<svg version="1.0" xmlns="http://www.w3.org/2000/svg"
 width="300.000000pt" height="265.000000pt" viewBox="0 0 300.000000 265.000000"
 preserveAspectRatio="xMidYMid meet">
<metadata>
Created by potrace 1.10, written by Peter Selinger 2001-2011
</metadata>
<g transform="translate(0.000000,265.000000) scale(0.100000,-0.100000)"
fill="#000000" stroke="none">
<path d="M1848 2146 c-55 -15 -128 -62 -128 -83 0 -11 -5 -13 -17 -8 -10 5
-49 17 -88 27 -91 25 -233 20 -318 -10 l-59 -21 -24 29 c-71 84 -220 93 -303
17 -33 -30 -71 -115 -71 -157 0 -40 37 -124 70 -158 21 -22 21 -24 5 -58 -27
-57 -48 -191 -42 -269 15 -205 144 -403 323 -497 104 -54 173 -72 289 -71 156
0 274 48 396 161 81 74 130 150 164 256 25 78 27 93 23 208 -4 91 -10 139 -27
186 l-22 63 27 32 c86 102 67 254 -41 325 -27 18 -56 32 -66 32 -10 0 -23 2
-31 4 -7 3 -34 -1 -60 -8z m-732 -72 l35 -17 -108 -108 -108 -108 -12 27 c-17
38 -16 117 2 151 32 64 120 89 191 55z m855 -7 c62 -42 86 -146 46 -201 -12
-16 -23 -8 -112 84 -55 55 -101 105 -103 110 -4 12 47 28 94 29 27 1 52 -7 75
-22z m-764 -34 c4 -11 -26 -27 -35 -19 -2 3 -2 12 2 21 6 18 27 16 33 -2z
m578 -13 c18 -34 8 -39 -25 -12 -13 11 -20 24 -16 30 12 19 25 14 41 -18z
m-131 -8 c33 -12 90 -40 128 -63 l68 -41 -33 -37 c-19 -20 -102 -107 -187
-193 l-153 -158 -29 25 c-16 14 -38 25 -48 25 -23 0 -44 -26 -34 -42 22 -37
71 -91 89 -98 19 -7 54 4 66 22 3 4 90 93 192 197 l187 189 24 -31 c75 -98
111 -288 82 -427 -41 -194 -173 -344 -358 -406 -187 -62 -366 -24 -537 114
-55 45 -131 160 -157 238 -26 82 -27 265 0 344 32 96 77 169 138 226 70 64
116 89 218 121 98 30 253 28 344 -5z m267 -128 c20 -19 52 -41 72 -48 l35 -12
-19 -24 c-19 -25 -19 -25 -34 -5 -63 84 -68 85 -136 24 -58 -51 -69 -50 -18 4
22 23 43 54 46 70 3 15 8 27 11 27 4 0 23 -16 43 -36z m-421 -399 c-16 -15
-24 -17 -37 -9 -30 19 -24 29 17 29 39 0 39 0 20 -20z"/>
<path d="M1349 1962 c-252 -66 -409 -334 -344 -587 50 -190 211 -332 415 -366
121 -20 280 36 388 136 145 134 190 359 108 537 -38 82 -41 85 -65 64 -19 -17
-19 -18 11 -82 94 -202 4 -458 -195 -553 -169 -80 -352 -52 -488 76 -57 53
-112 155 -129 240 -16 75 0 174 42 260 108 223 387 301 614 172 45 -25 53 -27
64 -14 17 20 3 36 -64 74 -104 60 -233 75 -357 43z"/>
<path d="M1457 1873 c-13 -12 -7 -81 8 -93 25 -21 45 -4 45 38 0 48 -29 79
-53 55z"/>
<path d="M1230 1785 c-10 -12 -9 -20 4 -40 18 -28 38 -32 55 -11 8 10 6 19
-10 40 -24 30 -32 32 -49 11z"/>
<path d="M1074 1506 c-13 -35 3 -47 58 -44 49 3 53 5 53 28 0 23 -4 25 -53 28
-40 2 -54 -1 -58 -12z"/>
<path d="M1764 1506 c-13 -34 4 -47 53 -44 44 3 48 5 48 28 0 23 -4 25 -48 28
-35 2 -49 -1 -53 -12z"/>
<path d="M1229 1239 c-8 -17 -8 -24 3 -35 12 -12 17 -11 37 10 13 14 20 29 16
35 -11 18 -44 12 -56 -10z"/>
<path d="M1670 1244 c0 -24 19 -54 34 -54 26 0 37 25 20 48 -18 25 -54 30 -54
6z"/>
<path d="M1456 1204 c-18 -48 5 -103 39 -90 18 7 21 76 3 94 -17 17 -35 15
-42 -4z"/>
<path d="M2335 1691 c-93 -24 -170 -100 -185 -183 -30 -161 137 -299 293 -244
115 42 184 171 143 269 -8 21 -13 44 -9 53 8 22 -26 54 -59 54 -15 0 -28 4
-28 10 0 27 -103 54 -155 41z m100 -78 c19 -9 35 -19 35 -23 0 -3 -27 -32 -59
-64 l-60 -59 -36 32 c-35 31 -38 31 -56 15 -10 -9 -19 -21 -19 -26 0 -13 101
-118 113 -118 5 0 44 36 87 80 42 44 79 77 83 74 4 -4 7 -27 7 -52 0 -78 -57
-141 -142 -157 -72 -14 -170 56 -184 130 -9 52 27 120 84 156 53 33 95 37 147
12z m103 -35 c2 -10 -6 -19 -18 -23 -28 -9 -34 -2 -20 25 13 23 33 22 38 -2z"/>
<path d="M1440 802 c-28 -23 -20 -59 16 -68 46 -12 72 37 38 70 -20 20 -27 20
-54 -2z"/>
<path d="M2073 735 c3 -41 3 -75 0 -75 -3 0 -16 9 -30 20 -31 24 -54 25 -100
3 -97 -46 -98 -194 -1 -253 44 -27 70 -25 107 6 l31 26 0 -26 c0 -22 4 -26 30
-26 l30 0 0 200 0 200 -36 0 -37 0 6 -75z m-18 -130 c30 -30 32 -64 4 -99 -58
-73 -158 24 -103 102 21 30 68 29 99 -3z"/>
<path d="M334 603 c2 -104 4 -189 5 -190 1 -2 15 -3 31 -3 30 0 30 0 30 60 l0
60 39 0 c37 0 42 -4 82 -60 37 -53 46 -60 75 -60 45 0 49 13 16 52 -16 18 -36
44 -45 57 -16 24 -15 25 12 42 58 35 65 133 13 181 -44 42 -66 48 -166 48
l-96 0 4 -187z m202 92 c19 -19 23 -31 18 -48 -10 -36 -21 -41 -87 -45 l-63
-4 1 61 0 61 53 0 c43 0 58 -5 78 -25z m-137 -119 c8 -10 8 -16 -2 -25 -16
-13 -27 -5 -27 21 0 21 13 23 29 4z"/>
<path d="M744 681 c-54 -33 -74 -67 -74 -129 0 -51 3 -57 44 -98 39 -39 48
-44 90 -44 48 0 77 10 108 38 16 14 16 16 -7 34 -23 18 -26 18 -50 2 -33 -22
-91 -10 -113 24 l-14 22 106 0 106 0 0 36 c0 99 -113 166 -196 115z m90 -51
c14 -5 30 -18 36 -30 10 -19 8 -20 -60 -20 -74 0 -83 7 -50 40 22 22 37 24 74
10z"/>
<path d="M999 696 c-5 -7 -9 -230 -4 -253 5 -28 10 -33 35 -33 l30 0 0 88 c0
75 3 92 20 110 49 53 75 18 71 -98 -2 -94 3 -106 45 -96 23 6 24 9 24 99 0 95
8 117 41 117 32 0 44 -31 49 -124 5 -90 5 -91 33 -94 l27 -3 0 101 c0 114 -14
160 -56 179 -36 16 -58 14 -87 -9 l-26 -21 -21 21 c-25 25 -46 25 -87 0 -25
-15 -33 -16 -33 -6 0 8 -13 16 -30 18 -16 3 -30 4 -31 4z"/>
<path d="M1461 692 l-34 -3 7 -52 c3 -29 6 -91 6 -139 0 -85 1 -88 23 -88 42
0 47 16 47 151 0 70 -3 129 -7 131 -5 2 -23 2 -42 0z"/>
<path d="M1690 693 c-8 -3 -23 -12 -32 -21 -16 -14 -18 -13 -18 1 0 13 -9 17
-35 17 l-36 0 3 -137 3 -138 30 0 30 0 3 90 c3 99 16 125 62 125 42 0 50 -17
50 -106 0 -102 4 -114 41 -114 l29 0 0 111 0 111 -34 34 c-33 33 -60 40 -96
27z"/>
<path d="M2259 676 c-63 -43 -84 -116 -53 -183 38 -79 136 -108 210 -62 39 24
41 30 15 53 -18 17 -22 17 -43 2 -34 -24 -75 -20 -106 12 l-27 27 109 3 109 3
-6 46 c-4 39 -12 54 -46 85 -34 32 -47 38 -83 38 -29 0 -55 -8 -79 -24z m121
-56 c33 -33 24 -40 -45 -40 -71 0 -85 15 -43 44 31 22 64 20 88 -4z m-124 -51
c3 -6 -1 -18 -10 -27 -15 -15 -16 -14 -16 11 0 27 13 36 26 16z"/>
<path d="M2650 693 c-8 -3 -25 -15 -37 -26 l-23 -20 0 21 c0 18 -6 22 -29 22
-25 0 -29 -4 -35 -37 -3 -21 -6 -79 -6 -129 0 -96 10 -119 47 -112 15 3 19 16
23 79 6 87 27 129 66 129 26 0 32 8 36 50 3 25 -13 34 -42 23z"/>
</g>
</svg>
